<svg id="visual" viewBox="0 0 1500 1000" width="1500" height="1000" xmlns="http://www.w3.org/2000/svg" xmlns:xlink="http://www.w3.org/1999/xlink" version="1.1"><rect x="0" y="0" width="1500" height="1000" fill="#001122"></rect><defs><linearGradient id="grad1_0" x1="33.3%" y1="100%" x2="100%" y2="0%"><stop offset="20%" stop-color="#009473" stop-opacity="1"></stop><stop offset="80%" stop-color="#009473" stop-opacity="1"></stop></linearGradient></defs><defs><linearGradient id="grad1_1" x1="33.3%" y1="100%" x2="100%" y2="0%"><stop offset="20%" stop-color="#009473" stop-opacity="1"></stop><stop offset="80%" stop-color="#007270" stop-opacity="1"></stop></linearGradient></defs><defs><linearGradient id="grad1_2" x1="33.3%" y1="100%" x2="100%" y2="0%"><stop offset="20%" stop-color="#005060" stop-opacity="1"></stop><stop offset="80%" stop-color="#007270" stop-opacity="1"></stop></linearGradient></defs><defs><linearGradient id="grad1_3" x1="33.3%" y1="100%" x2="100%" y2="0%"><stop offset="20%" stop-color="#005060" stop-opacity="1"></stop><stop offset="80%" stop-color="#002f44" stop-opacity="1"></stop></linearGradient></defs><defs><linearGradient id="grad1_4" x1="33.3%" y1="100%" x2="100%" y2="0%"><stop offset="20%" stop-color="#001122" stop-opacity="1"></stop><stop offset="80%" stop-color="#002f44" stop-opacity="1"></stop></linearGradient></defs><defs><linearGradient id="grad2_0" x1="0%" y1="100%" x2="66.7%" y2="0%"><stop offset="20%" stop-color="#009473" stop-opacity="1"></stop><stop offset="80%" stop-color="#009473" stop-opacity="1"></stop></linearGradient></defs><defs><linearGradient id="grad2_1" x1="0%" y1="100%" x2="66.7%" y2="0%"><stop offset="20%" stop-color="#007270" stop-opacity="1"></stop><stop offset="80%" stop-color="#009473" stop-opacity="1"></stop></linearGradient></defs><defs><linearGradient id="grad2_2" x1="0%" y1="100%" x2="66.7%" y2="0%"><stop offset="20%" stop-color="#007270" stop-opacity="1"></stop><stop offset="80%" stop-color="#005060" stop-opacity="1"></stop></linearGradient></defs><defs><linearGradient id="grad2_3" x1="0%" y1="100%" x2="66.7%" y2="0%"><stop offset="20%" stop-color="#002f44" stop-opacity="1"></stop><stop offset="80%" stop-color="#005060" stop-opacity="1"></stop></linearGradient></defs><defs><linearGradient id="grad2_4" x1="0%" y1="100%" x2="66.7%" y2="0%"><stop offset="20%" stop-color="#002f44" stop-opacity="1"></stop><stop offset="80%" stop-color="#001122" stop-opacity="1"></stop></linearGradient></defs><g transform="translate(1500, 1000)"><path d="M-540.8 0C-447.5 -35.2 -354.1 -70.3 -340.9 -141.2C-327.7 -212.1 -394.8 -318.8 -382.4 -382.4C-370.1 -446.1 -278.3 -466.7 -201.3 -486C-124.3 -505.2 -62.2 -523 0 -540.8L0 0Z" fill="#002034"></path><path d="M-432.7 0C-358 -28.1 -283.3 -56.2 -272.7 -113C-262.2 -169.7 -315.8 -255 -305.9 -305.9C-296 -356.9 -222.6 -373.4 -161 -388.8C-99.5 -404.2 -49.7 -418.4 0 -432.7L0 0Z" fill="#003f54"></path><path d="M-324.5 0C-268.5 -21.1 -212.4 -42.2 -204.5 -84.7C-196.6 -127.3 -236.9 -191.3 -229.5 -229.5C-222 -267.6 -167 -280 -120.8 -291.6C-74.6 -303.1 -37.3 -313.8 0 -324.5L0 0Z" fill="#00616a"></path><path d="M-216.3 0C-179 -14.1 -141.6 -28.1 -136.4 -56.5C-131.1 -84.8 -157.9 -127.5 -153 -153C-148 -178.4 -111.3 -186.7 -80.5 -194.4C-49.7 -202.1 -24.9 -209.2 0 -216.3L0 0Z" fill="#008373"></path><path d="M-108.2 0C-89.5 -7 -70.8 -14.1 -68.2 -28.2C-65.5 -42.4 -79 -63.8 -76.5 -76.5C-74 -89.2 -55.7 -93.3 -40.3 -97.2C-24.9 -101 -12.4 -104.6 0 -108.2L0 0Z" fill="#009473"></path></g><g transform="translate(0, 0)"><path d="M540.8 0C544.6 84.7 548.3 169.4 493.4 204.4C438.4 239.3 324.8 224.5 275.8 275.8C226.7 327.1 242.2 444.5 207 499.7C171.8 554.9 85.9 547.8 0 540.8L0 0Z" fill="#002034"></path><path d="M432.7 0C435.6 67.8 438.6 135.5 394.7 163.5C350.7 191.4 259.9 179.6 220.6 220.6C181.4 261.7 193.7 355.6 165.6 399.7C137.4 443.9 68.7 438.3 0 432.7L0 0Z" fill="#003f54"></path><path d="M324.5 0C326.7 50.8 329 101.6 296 122.6C263.1 143.6 194.9 134.7 165.5 165.5C136 196.2 145.3 266.7 124.2 299.8C103.1 332.9 51.5 328.7 0 324.5L0 0Z" fill="#00616a"></path><path d="M216.3 0C217.8 33.9 219.3 67.8 197.3 81.7C175.4 95.7 129.9 89.8 110.3 110.3C90.7 130.8 96.9 177.8 82.8 199.9C68.7 221.9 34.4 219.1 0 216.3L0 0Z" fill="#008373"></path><path d="M108.2 0C108.9 16.9 109.7 33.9 98.7 40.9C87.7 47.9 65 44.9 55.2 55.2C45.3 65.4 48.4 88.9 41.4 99.9C34.4 111 17.2 109.6 0 108.2L0 0Z" fill="#009473"></path></g></svg>