<svg id="Vectorportal.com" xmlns="http://www.w3.org/2000/svg" viewBox="0 0 572.69 429.36"><defs><style>.cls-1{fill:#35886f;}.cls-1,.cls-11,.cls-12,.cls-14,.cls-2,.cls-3,.cls-4,.cls-6,.cls-7,.cls-8,.cls-9{fill-rule:evenodd;}.cls-2{fill:#1d5542;}.cls-3,.cls-5{fill:#449c82;}.cls-4{fill:#193e2f;}.cls-10,.cls-6{fill:#5ab097;}.cls-7{fill:#ffde13;}.cls-13,.cls-8{fill:#f4a600;}.cls-9{fill:#9ad1c0;}.cls-11{fill:#246e55;}.cls-12{fill:#ffce00;}.cls-14{fill:#facaaf;}</style></defs><path class="cls-1" d="M496.6,184a13.1,13.1,0,0,1,1.22-.89,84.57,84.57,0,0,1,28.78-13.68,7.08,7.08,0,0,1,3.4,13.75,61.28,61.28,0,0,0-9,3,46.73,46.73,0,0,1,8.46,7.27,41.85,41.85,0,0,1,9.75,16.75c1.88,6.93.82,13.27-3.63,17.37s-10.85,4.63-17.6,2.19a41.92,41.92,0,0,1-15.9-11.1,44.61,44.61,0,0,1-8.6-13.32,138.92,138.92,0,0,0-17.77,21.94,7.08,7.08,0,0,1-11.8-7.82c7.57-11.5,17.38-23.27,29.07-32.68,1.18-1,2.37-1.87,3.59-2.77Zm12.16,11.68c-1.74-.64-2.93-.92-3.16-.71s0,1.42.44,3.21a31.17,31.17,0,0,0,16.79,18.23c1.75.63,2.94.92,3.17.71s0-1.43-.44-3.21a31.15,31.15,0,0,0-16.8-18.23Z" transform="translate(-11.49 -46.19)"/><path class="cls-2" d="M205.23,126.53Q183.69,86.35,137.3,74.87c-17.39,35.85-17.72,73.67-.11,113.58C168.4,173.3,191.59,153,205.23,126.53Z" transform="translate(-11.49 -46.19)"/><path class="cls-2" d="M297.83,475.55c157.71,0,286.35-9.67,286.35-21.52S455.54,432.5,297.83,432.5,11.49,442.17,11.49,454,140.12,475.55,297.83,475.55Z" transform="translate(-11.49 -46.19)"/><polygon class="cls-2" points="123.23 270.09 159.7 406.21 222.18 406.21 222.18 320.73 123.23 270.09"/><polygon class="cls-1" points="163.26 270.09 199.74 406.21 262.21 406.21 262.21 320.73 163.26 270.09"/><polygon class="cls-2" points="423.84 270.09 387.37 406.21 324.89 406.21 324.89 320.73 423.84 270.09"/><path class="cls-3" d="M297.83,420.48c111.39,0,202.24-77.8,202.24-173.21S409.22,74.07,297.83,74.07,95.59,151.87,95.59,247.27,186.44,420.48,297.83,420.48Z" transform="translate(-11.49 -46.19)"/><path class="cls-2" d="M297.83,74.07A234.58,234.58,0,0,1,350,79.9v.68a16.57,16.57,0,0,1-19.18,16.35,210.18,210.18,0,0,0-66,0,16.57,16.57,0,0,1-19.18-16.35V79.9A234.64,234.64,0,0,1,297.83,74.07Z" transform="translate(-11.49 -46.19)"/><path class="cls-4" d="M343.74,93.58a16,16,0,0,1-12.89,3.35,210.18,210.18,0,0,0-66,0,16,16,0,0,1-12.89-3.35,236.44,236.44,0,0,1,91.82,0Z" transform="translate(-11.49 -46.19)"/><polygon class="cls-1" points="471.9 270.09 435.43 406.21 372.95 406.21 372.95 320.73 471.9 270.09"/><path class="cls-1" d="M488.4,189.16a150.87,150.87,0,0,1,11.67,58.11c0,95.67-90.54,173.21-202.24,173.21-106.17,0-193.22-70.06-201.58-159.15,27.89,67.08,102.68,115.1,190.57,115.1,111.69,0,202.24-77.55,202.24-173.21C489.06,198.49,488.83,193.8,488.4,189.16Z" transform="translate(-11.49 -46.19)"/><path class="cls-3" d="M166,132.57q-2-45.55,32-79.09c33.26,22,52.84,54.31,58.07,97.62C221.54,154,191.24,148.36,166,132.57Z" transform="translate(-11.49 -46.19)"/><rect class="cls-5" x="34.04" y="153.53" width="139.17" height="94.11"/><path class="cls-6" d="M45.53,293.83c8,0,14.52-21.13,14.52-47s-6.52-47.06-14.52-47.06S31,220.86,31,246.78,37.54,293.83,45.53,293.83Z" transform="translate(-11.49 -46.19)"/><path class="cls-1" d="M39.24,260.06c2.26,0,4.1-6,4.1-13.28s-1.84-13.29-4.1-13.29-4.09,6-4.09,13.29S37,260.06,39.24,260.06Z" transform="translate(-11.49 -46.19)"/><path class="cls-1" d="M51.32,260.06c2.26,0,4.1-6,4.1-13.28s-1.84-13.29-4.1-13.29-4.1,6-4.1,13.29S49.06,260.06,51.32,260.06Z" transform="translate(-11.49 -46.19)"/><path class="cls-7" d="M259.19,82.25c-.23,15.43,16.7,28.19,37.81,28.51s38.42-11.93,38.65-27.36l.13-8.69-1.89,0c-4.83-11.25-19.09-19.54-36.05-19.79s-31.46,7.6-36.63,18.7l-1.89,0Z" transform="translate(-11.49 -46.19)"/><path class="cls-8" d="M259.32,73.56c-.23,15.43,16.7,28.19,37.81,28.51s38.42-11.93,38.65-27.36S319.08,46.51,298,46.2,259.55,58.13,259.32,73.56Z" transform="translate(-11.49 -46.19)"/><path class="cls-2" d="M163,224.5c12,0,21.71-11.8,21.71-26.28S175,171.94,163,171.94s-21.71,11.81-21.71,26.28S151,224.5,163,224.5Z" transform="translate(-11.49 -46.19)"/><path class="cls-9" d="M169.16,207.35c4.72,0,8.57-4.67,8.57-10.38s-3.85-10.38-8.57-10.38-8.58,4.66-8.58,10.38S164.43,207.35,169.16,207.35Z" transform="translate(-11.49 -46.19)"/><path class="cls-3" d="M235.25,90.51H248.9a16.86,16.86,0,0,0,2.55,2.67,16,16,0,0,0,13.36,3.75,210.18,210.18,0,0,1,66,0,16,16,0,0,0,13.36-3.75,16.86,16.86,0,0,0,2.55-2.67h21.53V123.9h-133Z" transform="translate(-11.49 -46.19)"/><ellipse class="cls-10" cx="294.74" cy="128.38" rx="103.62" ry="60.07"/><path class="cls-11" d="M350.19,414.61a233.23,233.23,0,0,1-31.45,5v-279h9.39V158.8h56.31V140.53h9.39V452.4h-9.39V379H328.13v35.63Zm34.25-248.8H328.13v35.63h56.31V165.81Zm0,42.64H328.13v35.62h56.31V208.45Zm0,42.63H328.13v35.63h56.31V251.08Zm0,42.64H328.13v35.62h56.31V293.72Zm0,42.63H328.13V372h56.31Z" transform="translate(-11.49 -46.19)"/><path class="cls-11" d="M414.29,216.9l-6.9,33.76,2.75,28.13L401.59,284l3.32,87.85-4.42-1.25-1.3,5.13h-20l8.55-7.44L380.16,297l-20.37-3.88L366.3,328l-6.51-.48v6.86H346.88l-.78-4.45,5.91-3.87L342,280.48l23.79-3.63,2.39-10.47-9.25-28.57-29.75,7.76,2.75-35.08h-3.46c-1.81-5.58,7.93-7.34,11.73,0h.9l.44,19.32,20.59-12.53,16.29-1.44,1.33-2,1.37-.19-1.51-3.13-6-1.78L372,199l-2.41-.6,2.84-9.51.17-9.1,8.5,1.8q0-.87,0-1.74c0-20.46,11.44-37,25.55-37h7.94c14.11,0,25.55,16.58,25.55,37s-11.44,37-25.55,37ZM389,206.62l0,.4,2.73,5.14,2.11-.28A29.76,29.76,0,0,1,389,206.62Z" transform="translate(-11.49 -46.19)"/><polygon class="cls-8" points="313.65 112.61 381.23 112.61 382.53 119.62 314.95 119.62 313.65 112.61"/><path class="cls-8" d="M333.05,201.44h67.58q.66,3.5,1.3,7H334.35Q333.71,204.94,333.05,201.44Z" transform="translate(-11.49 -46.19)"/><path class="cls-8" d="M341,244.07h67.58c.43,2.34.87,4.67,1.3,7H342.27C341.83,248.74,341.4,246.41,341,244.07Z" transform="translate(-11.49 -46.19)"/><path class="cls-8" d="M348.88,286.71h67.58c.44,2.33.87,4.67,1.31,7H350.18Q349.54,290.21,348.88,286.71Z" transform="translate(-11.49 -46.19)"/><path class="cls-8" d="M356.8,329.34h67.58c.43,2.34.87,4.67,1.3,7H358.1C357.67,334,357.23,331.68,356.8,329.34Z" transform="translate(-11.49 -46.19)"/><path class="cls-8" d="M364.71,372H432.3c.43,2.33.86,4.67,1.3,7H366C365.58,376.65,365.15,374.31,364.71,372Z" transform="translate(-11.49 -46.19)"/><polygon class="cls-8" points="361.14 368.42 428.73 368.42 430.02 375.43 362.44 375.43 361.14 368.42"/><path class="cls-12" d="M393.83,140.53h-9.39l57.9,311.87h9.39l-57.9-311.87Zm-65.7,0L386,452.4h-9.4l-57.9-311.87Z" transform="translate(-11.49 -46.19)"/><polygon class="cls-2" points="426.4 157.42 417.89 196.72 420.9 225.75 411.55 231.1 415.18 321.79 410.34 320.49 408.92 325.79 397.37 325.79 387.02 325.79 396.37 318.11 388.11 244.52 365.83 240.52 372.95 276.56 365.83 276.06 365.83 283.15 351.7 283.15 350.85 278.56 357.32 274.56 346.31 227.5 372.34 223.75 374.95 212.94 364.83 183.45 332.29 191.46 335.29 155.25 345.33 155.25 345.81 175.19 368.33 162.25 426.4 157.42"/><path class="cls-7" d="M437.27,131.59c15.43,0,27.94,17.12,27.94,38.23s-12.51,38.24-27.94,38.24h-8.7v-1.89c-11.17-5-19.24-19.39-19.24-36.35s8.07-31.34,19.24-36.34v-1.89Z" transform="translate(-11.49 -46.19)"/><ellipse class="cls-13" cx="417.08" cy="123.63" rx="27.94" ry="38.23"/><polygon class="cls-14" points="390.11 160.44 387.45 155.25 380.85 153.41 379.22 143.4 376.59 142.78 381.22 128.13 398.21 131.63 397.74 151.66 402.11 159.44 390.11 160.44"/><polygon class="cls-2" points="384.23 163.55 387.61 158.67 403.13 156.67 410.88 161.93 384.23 163.55"/><polygon class="cls-2" points="379.7 132.97 379.88 123.57 399.28 127.45 397.74 151.66 391.65 152.35 383.89 139.59 385.02 132.71 379.7 132.97"/><path class="cls-14" d="M399.31,185.78c1.47,0,2.37,2,2,4.37s-1.82,4.38-3.29,4.38-2.38-2-2-4.38S397.84,185.78,399.31,185.78Z" transform="translate(-11.49 -46.19)"/><path class="cls-14" d="M355.83,201.44H343C341,195.68,351.68,193.87,355.83,201.44Z" transform="translate(-11.49 -46.19)"/></svg>