<svg id="Vectorportal.com" xmlns="http://www.w3.org/2000/svg" viewBox="0 0 536.66 479.99"><defs><style>.cls-1{fill:#e29500;}.cls-1,.cls-10,.cls-11,.cls-4,.cls-5,.cls-6,.cls-8,.cls-9{fill-rule:evenodd;}.cls-2{fill:#c05418;}.cls-3{fill:#422414;}.cls-4{fill:#ed7f00;}.cls-5{fill:#fae900;}.cls-6{fill:#a54117;}.cls-7{fill:#ecf0d5;}.cls-8{fill:#8ba631;}.cls-9{fill:#ffde13;}.cls-10{fill:#f4a600;}.cls-11{fill:#fcd591;}</style></defs><path class="cls-1" d="M338.5,213.78a47,47,0,1,1-65.14,13.42A47,47,0,0,1,338.5,213.78Z" transform="translate(-67.99 -85.38)"/><path class="cls-1" d="M334.81,219.4A40.31,40.31,0,1,1,279,230.9,40.31,40.31,0,0,1,334.81,219.4Z" transform="translate(-67.99 -85.38)"/><path class="cls-1" d="M297.08,273.49l4.84,3.19,3.41-5.19c5.86,2.29,10.94.34,14.09-4.45,6.27-9.53-7.16-17.8-4-22.54,1.48-2.24,3.4-2.34,5.79-.76,2.1,1.38,3.08,3.25,3.8,6.07l6.45-1.76a14.85,14.85,0,0,0-4.74-9l3.31-5-4.83-3.18L321.77,236c-5.31-2.13-10.43-.65-13.65,4.24-5.91,9,7.32,17.55,3.94,22.69-1.51,2.29-3.52,2.62-6.31.78-2.39-1.58-3.93-4-5.23-7.59l-6.44,2.84a19.82,19.82,0,0,0,6.28,9.57Z" transform="translate(-67.99 -85.38)"/><rect class="cls-2" y="226.59" width="380.11" height="253.4" rx="20.32"/><rect class="cls-3" y="380.71" width="380.11" height="50.76"/><path class="cls-4" d="M152.87,370.16a19.78,19.78,0,1,0-19.78-19.78A19.82,19.82,0,0,0,152.87,370.16Z" transform="translate(-67.99 -85.38)"/><path class="cls-5" d="M106.21,370.16a19.78,19.78,0,1,0-19.78-19.78A19.82,19.82,0,0,0,106.21,370.16Z" transform="translate(-67.99 -85.38)"/><path class="cls-6" d="M96.17,437.34h57.16a8.42,8.42,0,0,1,8.4,8.4h0a8.42,8.42,0,0,1-8.4,8.4H96.17a8.42,8.42,0,0,1-8.39-8.4h0A8.42,8.42,0,0,1,96.17,437.34Z" transform="translate(-67.99 -85.38)"/><path class="cls-6" d="M185,437.34H242.2a8.42,8.42,0,0,1,8.39,8.4h0a8.42,8.42,0,0,1-8.39,8.4H185a8.42,8.42,0,0,1-8.4-8.4h0A8.42,8.42,0,0,1,185,437.34Z" transform="translate(-67.99 -85.38)"/><path class="cls-6" d="M273.9,437.34h57.16a8.42,8.42,0,0,1,8.39,8.4h0a8.42,8.42,0,0,1-8.39,8.4H273.9a8.42,8.42,0,0,1-8.4-8.4h0A8.42,8.42,0,0,1,273.9,437.34Z" transform="translate(-67.99 -85.38)"/><path class="cls-6" d="M362.76,437.34h57.16a8.42,8.42,0,0,1,8.4,8.4h0a8.42,8.42,0,0,1-8.4,8.4H362.76a8.42,8.42,0,0,1-8.4-8.4h0A8.42,8.42,0,0,1,362.76,437.34Z" transform="translate(-67.99 -85.38)"/><rect class="cls-7" x="172.95" y="199.63" width="420.72" height="189.8" transform="translate(-167.34 235.97) rotate(-40.72)"/><path class="cls-8" d="M196.44,346.85,462.87,117.54a22,22,0,0,0,30.95,2.32l78.67,91.4a22,22,0,0,0-2.31,31L303.75,471.53a21.94,21.94,0,0,0-30.95-2.32L194.13,377.8a22,22,0,0,0,2.31-30.95ZM341.52,246c-22.84,19.66-22.65,57.34.43,84.15s60.31,32.61,83.15,12.95,22.65-57.33-.43-84.14-60.31-32.62-83.15-13ZM283.84,349.89a22.94,22.94,0,1,0,32.34,2.42,22.93,22.93,0,0,0-32.34-2.42Zm169-145.48a22.93,22.93,0,1,0,32.35,2.42A22.93,22.93,0,0,0,452.86,204.41Z" transform="translate(-67.99 -85.38)"/><path class="cls-9" d="M129.94,425.64a47,47,0,1,1-8.37,66A47,47,0,0,1,129.94,425.64Z" transform="translate(-67.99 -85.38)"/><path class="cls-10" d="M134.06,431a40.31,40.31,0,1,1-7.18,56.55A40.31,40.31,0,0,1,134.06,431Z" transform="translate(-67.99 -85.38)"/><path class="cls-9" d="M173,484.15l4.58-3.55-3.8-4.91c4.06-4.81,3.85-10.24.34-14.77-7-9-19.16,1-22.63-3.47-1.64-2.12-1.11-4,1.15-5.73,2-1.53,4.07-1.86,7-1.62l.42-6.67a14.82,14.82,0,0,0-10,1.57l-3.7-4.77-4.58,3.55,3.77,4.87c-3.74,4.33-4,9.66-.41,14.29,6.58,8.49,19-1.25,22.74,3.61,1.69,2.17,1.34,4.17-1.3,6.22-2.26,1.76-5.07,2.42-8.87,2.49l.6,7a19.76,19.76,0,0,0,11.09-2.84Z" transform="translate(-67.99 -85.38)"/><path class="cls-9" d="M275,368.76a47,47,0,1,1,16.62-64.4A47,47,0,0,1,275,368.76Z" transform="translate(-67.99 -85.38)"/><path class="cls-10" d="M271.55,363a40.31,40.31,0,1,1,14.24-55.2A40.31,40.31,0,0,1,271.55,363Z" transform="translate(-67.99 -85.38)"/><path class="cls-9" d="M239.57,305.29l-5,2.95,3.16,5.35c-4.63,4.25-5.11,9.67-2.2,14.6,5.8,9.83,19.13,1.41,22,6.29,1.37,2.32.61,4.09-1.86,5.54-2.16,1.28-4.27,1.34-7.13.74l-1.25,6.56a14.76,14.76,0,0,0,10.15-.3l3.06,5.2,5-3-3.12-5.3c4.26-3.83,5.18-9.08,2.2-14.12-5.46-9.26-19-1.15-22.1-6.45-1.4-2.36-.81-4.31,2.07-6,2.47-1.46,5.34-1.77,9.12-1.36l.29-7a19.73,19.73,0,0,0-11.36,1.43Z" transform="translate(-67.99 -85.38)"/><path class="cls-9" d="M294.61,441.62a47,47,0,1,1,36.6,55.54A47,47,0,0,1,294.61,441.62Z" transform="translate(-67.99 -85.38)"/><path class="cls-10" d="M301.19,443a40.31,40.31,0,1,1,31.37,47.6A40.32,40.32,0,0,1,301.19,443Z" transform="translate(-67.99 -85.38)"/><path class="cls-9" d="M365.42,458l1.16-5.68-6.08-1.25c-.05-6.29-3.74-10.28-9.36-11.43-11.17-2.3-13.87,13.24-19.43,12.1-2.63-.54-3.43-2.29-2.86-5.1.51-2.45,1.88-4.06,4.24-5.77l-4-5.34a14.8,14.8,0,0,0-6.59,7.73L316.57,442l-1.17,5.68,6,1.24c0,5.72,3.26,9.93,9,11.11C341,462.22,344,446.75,350,448c2.7.55,3.74,2.29,3.07,5.57-.58,2.8-2.28,5.14-5.11,7.66l5,4.94a19.8,19.8,0,0,0,6.56-9.38Z" transform="translate(-67.99 -85.38)"/><rect class="cls-3" y="401.24" width="380.11" height="30.23"/><path class="cls-9" d="M213.42,182.21a47,47,0,1,1-65.14,13.41A47,47,0,0,1,213.42,182.21Z" transform="translate(-67.99 -85.38)"/><path class="cls-10" d="M209.73,187.82a40.31,40.31,0,1,1-55.84,11.5A40.31,40.31,0,0,1,209.73,187.82Z" transform="translate(-67.99 -85.38)"/><path class="cls-9" d="M172,241.91l4.84,3.19,3.41-5.19c5.86,2.29,10.94.34,14.09-4.45,6.27-9.53-7.16-17.8-4-22.54,1.48-2.24,3.4-2.33,5.79-.76,2.1,1.38,3.09,3.25,3.8,6.08l6.45-1.76a14.79,14.79,0,0,0-4.74-9l3.32-5-4.84-3.19-3.38,5.14c-5.32-2.14-10.44-.66-13.66,4.23-5.91,9,7.32,17.55,3.94,22.69-1.51,2.29-3.52,2.62-6.31.78-2.39-1.58-3.93-4-5.22-7.59L169,227.36a19.72,19.72,0,0,0,6.29,9.57Z" transform="translate(-67.99 -85.38)"/><rect class="cls-2" y="226.59" width="380.11" height="253.4" rx="20.32"/><rect class="cls-3" y="380.71" width="380.11" height="50.76"/><path class="cls-4" d="M152.87,370.16a19.78,19.78,0,1,0-19.78-19.78A19.82,19.82,0,0,0,152.87,370.16Z" transform="translate(-67.99 -85.38)"/><path class="cls-5" d="M106.21,370.16a19.78,19.78,0,1,0-19.78-19.78A19.82,19.82,0,0,0,106.21,370.16Z" transform="translate(-67.99 -85.38)"/><path class="cls-6" d="M96.17,437.34h57.16a8.42,8.42,0,0,1,8.4,8.4h0a8.42,8.42,0,0,1-8.4,8.4H96.17a8.42,8.42,0,0,1-8.39-8.4h0A8.42,8.42,0,0,1,96.17,437.34Z" transform="translate(-67.99 -85.38)"/><path class="cls-6" d="M185,437.34H242.2a8.42,8.42,0,0,1,8.39,8.4h0a8.42,8.42,0,0,1-8.39,8.4H185a8.42,8.42,0,0,1-8.4-8.4h0A8.42,8.42,0,0,1,185,437.34Z" transform="translate(-67.99 -85.38)"/><path class="cls-6" d="M273.9,437.34h57.16a8.42,8.42,0,0,1,8.39,8.4h0a8.42,8.42,0,0,1-8.39,8.4H273.9a8.42,8.42,0,0,1-8.4-8.4h0A8.42,8.42,0,0,1,273.9,437.34Z" transform="translate(-67.99 -85.38)"/><path class="cls-6" d="M362.76,437.34h57.16a8.42,8.42,0,0,1,8.4,8.4h0a8.42,8.42,0,0,1-8.4,8.4H362.76a8.42,8.42,0,0,1-8.4-8.4h0A8.42,8.42,0,0,1,362.76,437.34Z" transform="translate(-67.99 -85.38)"/><rect class="cls-7" x="172.95" y="199.63" width="420.72" height="189.8" transform="translate(-167.34 235.97) rotate(-40.72)"/><path class="cls-8" d="M196.44,346.85,462.87,117.54a22,22,0,0,0,30.95,2.32l78.67,91.4a22,22,0,0,0-2.31,31L303.75,471.53a21.94,21.94,0,0,0-30.95-2.32L194.13,377.8a22,22,0,0,0,2.31-30.95ZM341.52,246c-22.84,19.66-22.65,57.34.43,84.15s60.31,32.61,83.15,12.95,22.65-57.33-.43-84.14-60.31-32.62-83.15-13ZM283.84,349.89a22.94,22.94,0,1,0,32.34,2.42,22.93,22.93,0,0,0-32.34-2.42Zm169-145.48a22.93,22.93,0,1,0,32.35,2.42A22.93,22.93,0,0,0,452.86,204.41Z" transform="translate(-67.99 -85.38)"/><path class="cls-9" d="M129.94,425.64a47,47,0,1,1-8.37,66A47,47,0,0,1,129.94,425.64Z" transform="translate(-67.99 -85.38)"/><path class="cls-10" d="M134.06,431a40.31,40.31,0,1,1-7.18,56.55A40.31,40.31,0,0,1,134.06,431Z" transform="translate(-67.99 -85.38)"/><path class="cls-9" d="M173,484.15l4.58-3.55-3.8-4.91c4.06-4.81,3.85-10.24.34-14.77-7-9-19.16,1-22.63-3.47-1.64-2.12-1.11-4,1.15-5.73,2-1.53,4.07-1.86,7-1.62l.42-6.67a14.82,14.82,0,0,0-10,1.57l-3.7-4.77-4.58,3.55,3.77,4.87c-3.74,4.33-4,9.66-.41,14.29,6.58,8.49,19-1.25,22.74,3.61,1.69,2.17,1.34,4.17-1.3,6.22-2.26,1.76-5.07,2.42-8.87,2.49l.6,7a19.76,19.76,0,0,0,11.09-2.84Z" transform="translate(-67.99 -85.38)"/><path class="cls-9" d="M275,368.76a47,47,0,1,1,16.62-64.4A47,47,0,0,1,275,368.76Z" transform="translate(-67.99 -85.38)"/><path class="cls-10" d="M271.55,363a40.31,40.31,0,1,1,14.24-55.2A40.31,40.31,0,0,1,271.55,363Z" transform="translate(-67.99 -85.38)"/><path class="cls-9" d="M239.57,305.29l-5,2.95,3.16,5.35c-4.63,4.25-5.11,9.67-2.2,14.6,5.8,9.83,19.13,1.41,22,6.29,1.37,2.32.61,4.09-1.86,5.54-2.16,1.28-4.27,1.34-7.13.74l-1.25,6.56a14.76,14.76,0,0,0,10.15-.3l3.06,5.2,5-3-3.12-5.3c4.26-3.83,5.18-9.08,2.2-14.12-5.46-9.26-19-1.15-22.1-6.45-1.4-2.36-.81-4.31,2.07-6,2.47-1.46,5.34-1.77,9.12-1.36l.29-7a19.73,19.73,0,0,0-11.36,1.43Z" transform="translate(-67.99 -85.38)"/><path class="cls-9" d="M294.61,441.62a47,47,0,1,1,36.6,55.54A47,47,0,0,1,294.61,441.62Z" transform="translate(-67.99 -85.38)"/><path class="cls-10" d="M301.19,443a40.31,40.31,0,1,1,31.37,47.6A40.32,40.32,0,0,1,301.19,443Z" transform="translate(-67.99 -85.38)"/><path class="cls-9" d="M365.42,458l1.16-5.68-6.08-1.25c-.05-6.29-3.74-10.28-9.36-11.43-11.17-2.3-13.87,13.24-19.43,12.1-2.63-.54-3.43-2.29-2.86-5.1.51-2.45,1.88-4.06,4.24-5.77l-4-5.34a14.8,14.8,0,0,0-6.59,7.73L316.57,442l-1.17,5.68,6,1.24c0,5.72,3.26,9.93,9,11.11C341,462.22,344,446.75,350,448c2.7.55,3.74,2.29,3.07,5.57-.58,2.8-2.28,5.14-5.11,7.66l5,4.94a19.8,19.8,0,0,0,6.56-9.38Z" transform="translate(-67.99 -85.38)"/><rect class="cls-3" y="401.24" width="380.11" height="30.23"/><path class="cls-9" d="M213.42,182.21a47,47,0,1,1-65.14,13.41A47,47,0,0,1,213.42,182.21Z" transform="translate(-67.99 -85.38)"/><path class="cls-10" d="M209.73,187.82a40.31,40.31,0,1,1-55.84,11.5A40.31,40.31,0,0,1,209.73,187.82Z" transform="translate(-67.99 -85.38)"/><path class="cls-9" d="M172,241.91l4.84,3.19,3.41-5.19c5.86,2.29,10.94.34,14.09-4.45,6.27-9.53-7.16-17.8-4-22.54,1.48-2.24,3.4-2.33,5.79-.76,2.1,1.38,3.09,3.25,3.8,6.08l6.45-1.76a14.79,14.79,0,0,0-4.74-9l3.32-5-4.84-3.19-3.38,5.14c-5.32-2.14-10.44-.66-13.66,4.23-5.91,9,7.32,17.55,3.94,22.69-1.51,2.29-3.52,2.62-6.31.78-2.39-1.58-3.93-4-5.22-7.59L169,227.36a19.72,19.72,0,0,0,6.29,9.57Z" transform="translate(-67.99 -85.38)"/><path class="cls-11" d="M94.93,191.92a3.53,3.53,0,0,1,7,0v62a3.53,3.53,0,1,1-7,0v-62Zm164.23-56.73a3.53,3.53,0,1,1,7,0V180a3.53,3.53,0,1,1-7,0V135.19Zm64.19,12.69a3.53,3.53,0,0,1,7.06,0v28.37a3.53,3.53,0,0,1-7.06,0V147.88ZM181.52,129.22a3.53,3.53,0,1,1,7.06,0v29.11a3.53,3.53,0,1,1-7.06,0V129.22ZM378.59,94.88a3.53,3.53,0,1,1,7.06,0v47a3.53,3.53,0,0,1-7.06,0v-47ZM133,278.51a3.53,3.53,0,0,1,7.06,0v21.65a3.53,3.53,0,0,1-7.06,0Z" transform="translate(-67.99 -85.38)"/></svg>