<svg id="Vectorportal.com" xmlns="http://www.w3.org/2000/svg" viewBox="0 0 509.04 568.1"><defs><style>.cls-1{fill:#7d562e;}.cls-1,.cls-10,.cls-2,.cls-3,.cls-6,.cls-7,.cls-8,.cls-9{fill-rule:evenodd;}.cls-2{fill:#963;}.cls-3{fill:#c49362;}.cls-4{fill:#9c3;}.cls-5,.cls-8{fill:#cdf2a7;}.cls-6{fill:#96c963;}.cls-7{fill:#9c6;}.cls-9{fill:#8f5d2b;}.cls-10{fill:#b07e4c;}</style></defs><path class="cls-1" d="M159.44,341.16l.79-24a75.31,75.31,0,0,0-9.58-36.58c-9.37-17.09-21.07-24.06-36.63-33.85,19.78,7.35,33.6,22.11,38.64,32.79,6.21,11.33,10.7,23.56,10.62,37.46l-.14,24.19-3.7,0Zm142.89,24.71,0-17.87c-.06-25.55,4.9-47,15.29-70.28-8.52,27.26-11.89,40.08-12.37,69.89l.82,18.26ZM351.19,315l25.87,2.15c26.48,2.58,43.6-7.55,64.79-28.63-17.87,22.25-35.37,34.8-65.09,32.33l-25.88-2.15.31-3.7ZM308.72,205.14a177,177,0,0,0,23-2.48c18.41-3.47,29.77-15.18,35.59-30.09C363.17,189.51,350,200.89,333,204.68c-7.27,1.62-15.16,3.47-23.61,4.12l-.62-3.66Zm-51,35.05,2.58-22.42a84.63,84.63,0,0,1,16.1-41.48c-8.17,13.58-11.29,27.16-13,42l-2,22.28-3.68-.42ZM156,176.29l10.86-19.89c10.18-18.63,8.33-31.5,4.52-50.88,7.22,22.53,6.57,34.74-2.38,53.57l-9.69,21.13L156,176.29Zm-8.69-33.06c-25.3,18.17-53,19.67-78,.1,25.55,15.44,46.57,16.55,75.87-3.11Z" transform="translate(-5.11 -12.81)"/><path class="cls-2" d="M261.32,352c-37.41-1.27-80.76.68-116-11.71-31.47-11.05-56-32.07-82.3-51.73,30.63,17.05,58.1,37.35,84.74,46.7,34.24,12,77.47,8.1,113.85,9.34l-.24,7.4ZM210.89,229.83l-35.31-25.66c-16.2-11.77-23.41-25.48-27.24-44.83-5.32-26.84-21.43-35.44-42.28-50.1,26.25,12.86,42.43,26.5,46,49.46,3.47,17.51,12,31.17,26.67,41.82l36.5,23.3-4.36,6Zm9.18,22.65L273,230.94c20.21-8.23,34.39-22.93,41.89-43.42l15.36-42c-2.8,14.84-8.22,28.62-11,43.45-8.22,22.44-21.58,38.34-43.71,47.36-17.63,7.18-35,15.8-52.62,23l-2.79-6.88Zm35.8,126.86q1.26,3.5,2.5,7l58.55-21.1c46.37-16.72,29-57.49,58-89.23,11.34-12.41,25.74-21.42,39.1-23.74-17.22-.33-36.1,14.12-42.48,21.11-29.16,31.93-14.67,72.07-56.07,87C296,367.37,275.39,372.31,255.87,379.34Z" transform="translate(-5.11 -12.81)"/><path class="cls-3" d="M202.88,458.75l39.67-64.49c13.69-29.31,11.8-60.68-5.28-88.16-28-45-41.41-82.55-13.55-132.15,20-35.55,14.5-56.64,3-93.55,21.26,33,22.84,67.89,5.31,98.38-24,42.72-6.63,79.71,17.28,118.18C270,330.16,277,367.22,260.43,402.62L233.61,460Z" transform="translate(-5.11 -12.81)"/><ellipse class="cls-4" cx="217.38" cy="551.85" rx="170.95" ry="16.26"/><rect class="cls-5" x="316.84" y="46.04" width="49.8" height="112.16" transform="matrix(0.99, -0.11, 0.11, 0.99, -14.21, 25.07)"/><path class="cls-6" d="M327.23,147.15l-9.42-85.84a7.48,7.48,0,0,0,6.62-8.25L348,50.47a7.48,7.48,0,0,0,8.26,6.62l9.41,85.84a7.49,7.49,0,0,0-6.62,8.26l-23.57,2.58a7.48,7.48,0,0,0-8.25-6.62ZM327,103.74c.74,6.72,7.95,11.44,16.11,10.55s14.17-7.07,13.44-13.79S348.57,89.06,340.41,90,326.23,97,327,103.74Z" transform="translate(-5.11 -12.81)"/><path class="cls-7" d="M327.93,146.32a8.28,8.28,0,0,1,8.21,6.59l22.08-2.42a8.26,8.26,0,0,1,6.59-8.21l-9.25-84.36a8.25,8.25,0,0,1-8.21-6.59l-22.09,2.43A8.27,8.27,0,0,1,318.67,62l9.26,84.35Zm-1.74-42.49a11.11,11.11,0,0,1,.21-3.68,13.34,13.34,0,0,1,4.83-7.33A18.27,18.27,0,0,1,350,90.76a13.34,13.34,0,0,1,6.3,6.11,11,11,0,0,1,.79,7.23,13.28,13.28,0,0,1-4.82,7.32,18.23,18.23,0,0,1-18.77,2.06,13.3,13.3,0,0,1-6.29-6.1A11,11,0,0,1,326.19,103.83Z" transform="translate(-5.11 -12.81)"/><path class="cls-7" d="M347.7,102.37l-5.21.58a6.87,6.87,0,0,1-1.72,3.79,5.35,5.35,0,0,1-3.3,1.51,4.88,4.88,0,0,1-3.58-.91,5.18,5.18,0,0,1-2-3.24l-1.23.14-.2-1.81,1.23-.14a5.42,5.42,0,0,1,1-3.32,5.33,5.33,0,0,1,2.82-1.83l.76,3.12a2.58,2.58,0,0,0-1.83,1.73l4.86-.53A8.14,8.14,0,0,1,341,97.13a5,5,0,0,1,3.19-1.45,5.51,5.51,0,0,1,3.94.95,6.2,6.2,0,0,1,2.35,3.6l2.32-.25.2,1.81-2.3.26a5.83,5.83,0,0,1-1.21,3.66,6.57,6.57,0,0,1-3.58,2.13l-.74-3.2a4.15,4.15,0,0,0,1.63-.93,3.52,3.52,0,0,0,.91-1.34Zm-13.07,1.44a2.35,2.35,0,0,0,1,1.06,2.2,2.2,0,0,0,1.37.28,2.14,2.14,0,0,0,1.18-.52,2.66,2.66,0,0,0,.78-1.3l-4.31.48Zm13.08-3.27a2.76,2.76,0,0,0-1.06-1.43,2.41,2.41,0,0,0-1.69-.42,2.15,2.15,0,0,0-1.38.66,3.2,3.2,0,0,0-.76,1.72Z" transform="translate(-5.11 -12.81)"/><path class="cls-8" d="M68.36,189.92c6.62,17.61,16.5,33.51,27.58,48.85A149.13,149.13,0,0,1,120,289.47c8.21-2.2,16.24-4.76,23.58-8.63s14-9,20.62-14.31a244.37,244.37,0,0,0-25.85-49.79c-10.38-15.66-19.53-32-25.81-49.77a185.09,185.09,0,0,1-21,13.55A145,145,0,0,1,68.36,189.92Z" transform="translate(-5.11 -12.81)"/><path class="cls-6" d="M77.94,200.62c6.55,12.87,14.67,24.89,23.28,36.71A181.66,181.66,0,0,1,122.56,275a7.09,7.09,0,0,1,9,5.11,109,109,0,0,0,10.68-4.79c3.44-1.82,6.74-3.91,10-6.07a11.14,11.14,0,0,1,3.47-11.58,275.85,275.85,0,0,0-21.62-37.59A297.62,297.62,0,0,1,112,182.78c-3.39,2.37-7.38,1-8.73-2.94-3.35,2.1-6.72,4.18-10.2,6s-7.09,3.46-10.72,5a7.57,7.57,0,0,1-4.43,9.72ZM105.36,236a8.72,8.72,0,0,1-1.29-8.62,14.82,14.82,0,0,1,7.14-7.28,18.86,18.86,0,0,1,10.87-2.23,11.9,11.9,0,0,1,8.54,4.84,11.36,11.36,0,0,1,1.51,9.58,13.1,13.1,0,0,1-6.56,8.15,16,16,0,0,1-11.16,1.2A15.81,15.81,0,0,1,105.36,236Z" transform="translate(-5.11 -12.81)"/><path class="cls-7" d="M79,201.08a8.31,8.31,0,0,0,4.33-9.7c3.39-1.48,6.76-3,10-4.74s6.42-3.66,9.56-5.62a6,6,0,0,0,8.77,2.91,308.52,308.52,0,0,0,21.86,36.64,278.27,278.27,0,0,1,21.37,36.9,12.27,12.27,0,0,0-3.42,11.45c-3.06,2-6.15,4-9.37,5.65a106.37,106.37,0,0,1-10,4.51,7.85,7.85,0,0,0-9-5,185.33,185.33,0,0,0-21.14-37c-8.45-11.61-16.47-23.42-23-36Zm25.69,35.16a13.8,13.8,0,0,0,2.74,2.77,18.72,18.72,0,0,0,9,3.68,16.18,16.18,0,0,0,9.63-1.6,13.81,13.81,0,0,0,6.26-6.78,13,13,0,0,0,.58-8.68,11.88,11.88,0,0,0-4.2-6.07,14,14,0,0,0-8.43-2.58,20.26,20.26,0,0,0-9.47,2.44,16.61,16.61,0,0,0-6.74,6.14,9.18,9.18,0,0,0-1,7.5A10.63,10.63,0,0,0,104.65,236.24Z" transform="translate(-5.11 -12.81)"/><path class="cls-7" d="M122.85,226.68c-1.45.84-2.91,1.69-4.39,2.49a8.45,8.45,0,0,0-3.93-2,6.09,6.09,0,0,0-3.68.52,3.83,3.83,0,0,0-2.26,2.43,4.24,4.24,0,0,0,.62,3.42l-1.1.44,1.11,1.51,1.1-.44a7.14,7.14,0,0,0,3.11,2.12,6.22,6.22,0,0,0,3.53.09l-1.54-2.81a3.13,3.13,0,0,1-2.66-.46c1.44-.63,2.86-1.3,4.26-2a10,10,0,0,0,4.23,2.5,4.91,4.91,0,0,0,3.43-.63,4.59,4.59,0,0,0,2.34-3,6.14,6.14,0,0,0-.66-4.19c.63-.41,1.26-.81,1.88-1.23l-1.06-1.52-1.87,1.22a6.46,6.46,0,0,0-3.37-2.1,7.07,7.07,0,0,0-4.17.46c.54,1,1.06,1.92,1.6,2.89a4.4,4.4,0,0,1,1.88-.22,3.91,3.91,0,0,1,1.6.5Zm-11.22,5.83a1.76,1.76,0,0,1,.06-1.3,1.8,1.8,0,0,1,.9-.88,2.36,2.36,0,0,1,1.31-.18,3.4,3.4,0,0,1,1.52.6c-1.25.6-2.51,1.2-3.79,1.76Zm12.46-4.42a2.6,2.6,0,0,1,.16,1.72,2.07,2.07,0,0,1-1,1.29,2.17,2.17,0,0,1-1.5.26,3.75,3.75,0,0,1-1.74-.92Q122.07,229.28,124.09,228.09Z" transform="translate(-5.11 -12.81)"/><path class="cls-8" d="M73.44,229.37c10.65,15.88,21.57,31.42,34.51,45s28,24.82,43.75,35.45q-8,8.32-16.08,16.65L119.55,343.1c-15.72-10.63-31-21.74-44.41-34.75s-25-27.88-36.28-43.15l17.29-17.91Z" transform="translate(-5.11 -12.81)"/><path class="cls-6" d="M76.88,244.38c8.6,11.81,17.4,23.39,27.4,33.78s21.23,19.45,32.84,28.15c-2.66,2.76-2,6.92,1.49,9.24-2.55,2.64-5.11,5.28-7.65,7.92l-7.65,7.92c-3.5-2.32-8.47-2-11.13.76-11.69-8.62-23.08-17.54-33.38-27.59s-19.51-21.24-28.47-32.68a9.36,9.36,0,0,0,.71-11.5l8.2-8.49q4.09-4.24,8.2-8.5c2.37,3.49,6.61,3.93,9.44,1Zm24.46,36.84a11.09,11.09,0,0,0-8.82-3.34,14.47,14.47,0,0,0-9.38,4.56,16.19,16.19,0,0,0-4.57,9.89,11.45,11.45,0,0,0,3.18,9.18,11.25,11.25,0,0,0,9.12,3,15.37,15.37,0,0,0,9.5-4.68,14.94,14.94,0,0,0,4.26-9.57A12,12,0,0,0,101.34,281.22Z" transform="translate(-5.11 -12.81)"/><path class="cls-7" d="M76.79,245.56a6.43,6.43,0,0,1-9.43-1l-7.67,8L52,260.5a10.46,10.46,0,0,1-.7,11.45c8.82,11.21,17.88,22.18,28,32.07s21.29,18.68,32.74,27.18a10.07,10.07,0,0,1,11.07-.74l7.16-7.42,7.17-7.42c-3.09-2.47-3.69-6.37-1.46-9.21-11.38-8.59-22.41-17.54-32.22-27.72s-18.51-21.56-27-33.13Zm25.07,35.12a12.16,12.16,0,0,1,2.14,3,13.58,13.58,0,0,1,1.19,8.49,15.79,15.79,0,0,1-4.23,8.18,16.31,16.31,0,0,1-8.11,4.6,13.26,13.26,0,0,1-8.59-.82A11.08,11.08,0,0,1,79.07,299a13.58,13.58,0,0,1-1-8.72,17.26,17.26,0,0,1,4.51-8.46,15.54,15.54,0,0,1,8-4.54,12.25,12.25,0,0,1,8.29,1.14A12.53,12.53,0,0,1,101.86,280.68Z" transform="translate(-5.11 -12.81)"/><path class="cls-7" d="M87,294.75l3.46-3.59a7,7,0,0,1-1.08-4,5.13,5.13,0,0,1,1.49-3.19,4.33,4.33,0,0,1,3.17-1.43,5.19,5.19,0,0,1,3.43,1.39l.81-.84c.43.43.85.87,1.29,1.3l-.82.84a5.75,5.75,0,0,1,1.35,3.2,4.94,4.94,0,0,1-.89,3.1c-.86-.65-1.7-1.31-2.54-2A2.5,2.5,0,0,0,97,287.1l-3.22,3.33a8.59,8.59,0,0,1,1.53,4.34,4.5,4.5,0,0,1-1.39,3,5,5,0,0,1-3.5,1.64,6.27,6.27,0,0,1-4-1.36l-1.54,1.59-1.31-1.28L85,296.8a6.1,6.1,0,0,1-1.4-3.61A6.46,6.46,0,0,1,85,289.34l2.51,2.09a3.84,3.84,0,0,0-.61,1.73,3.57,3.57,0,0,0,.16,1.59Zm8.67-9a2.25,2.25,0,0,0-1.38-.24,2.05,2.05,0,0,0-1.17.59,2.15,2.15,0,0,0-.55,1.13,2.84,2.84,0,0,0,.24,1.49l2.86-3Zm-7.51,10.41a2.81,2.81,0,0,0,1.69.47,2.21,2.21,0,0,0,1.5-.7A2.08,2.08,0,0,0,92,294.6a3.12,3.12,0,0,0-.55-1.77Z" transform="translate(-5.11 -12.81)"/><path class="cls-8" d="M131.7,15.68c-3.86,18.81.18,37.25,5.4,55.94A90.88,90.88,0,0,1,135,127.8c-8.4-3.25-16.77-5.41-25.06-4.92s-16.51,3.3-24.72,6.37c5.36-18.86,4.81-37.65-.25-56.11-5.11-18.64-8.29-37.16-3-56,8.24-2,16.48-3.86,24.78-4.25S123.34,13.81,131.7,15.68Z" transform="translate(-5.11 -12.81)"/><path class="cls-6" d="M122.25,27.22c.84,14.24,4.82,28.29,9,42.54a104.72,104.72,0,0,1,3.53,42.69c-4.25-1.16-8.71,1.5-10.33,5.61a61.86,61.86,0,0,0-12-.59,78.7,78.7,0,0,0-11.91,1.9c1.47-4.12-1-6.56-5.22-5.24a120.4,120.4,0,0,0-4.59-42.77C86.64,57.11,83.08,43,82.76,28.69a13.93,13.93,0,0,0,9.48-9,110.22,110.22,0,0,1,12-1.38,100.67,100.67,0,0,1,12,.3c-1,4.09,1.78,7.84,6,8.65Zm4.24,41.49c-1-3.31-3.73-6.63-7.28-9.09a19.83,19.83,0,0,0-12.1-3.74,13.37,13.37,0,0,0-9.86,4.83,10.21,10.21,0,0,0-1.89,9.43,12.57,12.57,0,0,0,7,7.49,24.47,24.47,0,0,0,11.87,2.09c4.29-.25,7.86-1.35,10.14-3.22A6.84,6.84,0,0,0,126.49,68.71Z" transform="translate(-5.11 -12.81)"/><path class="cls-7" d="M121.42,27.78c-4-1.08-6.75-4.57-6.27-8.5A98.43,98.43,0,0,0,103.89,19,112.07,112.07,0,0,0,92.68,20.3a15.07,15.07,0,0,1-9.18,8.94c.47,14,4,27.9,8,41.88a121.8,121.8,0,0,1,4.76,42c3.9-.84,6.25,1.47,5.34,5.3a76.68,76.68,0,0,1,11.18-1.7,61.31,61.31,0,0,1,11.23.45,9.75,9.75,0,0,1,10.13-5.69,106.47,106.47,0,0,0-3.78-41.92c-4.08-14-8-27.78-9-41.76Zm5.9,41.1a9.12,9.12,0,0,1,.45,3.42,7.5,7.5,0,0,1-4.1,5.78,21.15,21.15,0,0,1-9.31,2.4,27,27,0,0,1-10.46-1.36,15.61,15.61,0,0,1-7.63-5.37,12.1,12.1,0,0,1-1.72-3.4,11.08,11.08,0,0,1-.46-3.74,11.55,11.55,0,0,1,3.74-7.79,14.32,14.32,0,0,1,9.06-3.69,19.8,19.8,0,0,1,10.66,2.7,23.42,23.42,0,0,1,8,7.36A14.94,14.94,0,0,1,127.32,68.88Z" transform="translate(-5.11 -12.81)"/><path class="cls-7" d="M104.44,67.5q2.73-.33,5.49-.54a5,5,0,0,1,1.12-3.6,4.27,4.27,0,0,1,3.25-1.13,6.9,6.9,0,0,1,4,1.41,8,8,0,0,1,2.75,3.48c.43,0,.86.08,1.29.14.18.6.37,1.18.55,1.79-.43-.06-.86-.1-1.29-.15a3.61,3.61,0,0,1-.48,3,4,4,0,0,1-2.75,1.31c-.43-1-.88-2.09-1.34-3.11a1.73,1.73,0,0,0,1.66-1.41c-1.72-.06-3.43-.08-5.14-.07,0,2-.3,3.33-1,4.1A4.85,4.85,0,0,1,109.38,74a7.22,7.22,0,0,1-4.36-.85,7.6,7.6,0,0,1-3.14-3.42c-.81.14-1.62.3-2.44.46-.18-.61-.37-1.2-.54-1.79l2.4-.44a5.12,5.12,0,0,1,.61-3.7,5.66,5.66,0,0,1,3.42-2.18c.48,1,1,2.1,1.42,3.14a3.47,3.47,0,0,0-1.58.92,2.76,2.76,0,0,0-.73,1.33Zm13.78-.61A3.82,3.82,0,0,0,117,65.73a3.18,3.18,0,0,0-1.52-.46,1.73,1.73,0,0,0-1.17.37,1.79,1.79,0,0,0-.6,1.18c1.51,0,3,0,4.56.07Zm-13.45,2.43a3.55,3.55,0,0,0,1.41,1.36,3.13,3.13,0,0,0,1.88.39,2,2,0,0,0,1.36-.65,2.37,2.37,0,0,0,.49-1.65C108.19,68.92,106.48,69.1,104.77,69.32Z" transform="translate(-5.11 -12.81)"/><path class="cls-8" d="M281,336.16c18.68.57,37.36,1.89,56.06,3s37.39.8,56.1-3c2.67,8.3,4.77,16.6,4.67,24.91s-2.21,16.6-4.67,24.89c-18.71,4.48-37.43,5-56.1,3.71s-37.38-3-56.06-3.71c3.35-8.29,5.81-16.58,5.63-24.89S283.89,344.46,281,336.16Z" transform="translate(-5.11 -12.81)"/><path class="cls-6" d="M295.9,342c14.37.78,28.74,1.86,43.13,2.74a375.93,375.93,0,0,0,43.12.29c1.14,4.17,5.19,7.05,9.3,6.12a81.16,81.16,0,0,1,1,11.91A78.77,78.77,0,0,1,391.24,375a13.76,13.76,0,0,0-9.2,9.14,294.18,294.18,0,0,1-42.92-.12c-14.31-1-28.6-2.33-42.91-3.26,1.3-4.14-1.21-7.63-5.29-7.76A65.12,65.12,0,0,0,292,361.15a68.78,68.78,0,0,0-1.47-11.86c4.11.12,6.64-3.11,5.4-7.25Zm44.41,7.27a8.29,8.29,0,0,0-7.71,3.82c-1.72,2.59-2.57,6.21-2.54,10.36a22,22,0,0,0,2.69,10.92,9.7,9.7,0,0,0,7.67,5.07,12.45,12.45,0,0,0,9.47-3.84,14.78,14.78,0,0,0,4.44-10.51,16.22,16.22,0,0,0-4.48-10.87A14.87,14.87,0,0,0,340.31,349.31Z" transform="translate(-5.11 -12.81)"/><path class="cls-7" d="M296.9,342.86a5.7,5.7,0,0,1-5.46,7.19,68,68,0,0,1,1.31,11.11,66,66,0,0,1-.91,11.11,6.2,6.2,0,0,1,5.39,7.75c14,.93,28.09,2.2,42.15,3.21a303.92,303.92,0,0,0,42.14.26,15.17,15.17,0,0,1,9.08-9,66.43,66.43,0,0,0,.19-22.33,8.92,8.92,0,0,1-9.14-6.18,386.54,386.54,0,0,1-42.38-.39c-14.12-.87-28.25-1.94-42.37-2.71Zm43.2,5.66a13,13,0,0,1,3.8.84,18.23,18.23,0,0,1,7.85,6.07,16.48,16.48,0,0,1,3.37,9.75,15.36,15.36,0,0,1-3.32,9.47,15.12,15.12,0,0,1-7.82,5.27,11.61,11.61,0,0,1-3.76.36,9.51,9.51,0,0,1-3.46-.9,12,12,0,0,1-5.55-6.19,24.85,24.85,0,0,1-1.93-9.76,21.25,21.25,0,0,1,1.78-9.35,9.35,9.35,0,0,1,5.57-5.19A9.58,9.58,0,0,1,340.1,348.52Z" transform="translate(-5.11 -12.81)"/><path class="cls-7" d="M341.06,370.32c.13-1.77.21-3.54.24-5.32a7.59,7.59,0,0,1-3.57-2.41,6.84,6.84,0,0,1-1.35-3.59,4.46,4.46,0,0,1,.88-3.39,4,4,0,0,1,3.16-1.4c-.06-.41-.14-.83-.23-1.25l1.83.12c.08.42.15.83.21,1.25a6.71,6.71,0,0,1,3.41,1.58,6.42,6.42,0,0,1,1.86,3.15l-3.14.22a3.2,3.2,0,0,0-1.7-2.13c.18,1.65.32,3.31.41,5a8.8,8.8,0,0,1,4.12,2.41,5,5,0,0,1,1,3.46,5.45,5.45,0,0,1-1.68,3.79,6.53,6.53,0,0,1-4.05,1.71c-.12.79-.24,1.58-.38,2.36l-1.81-.12c.13-.78.27-1.56.39-2.35a5.35,5.35,0,0,1-3.27-1.89,7.33,7.33,0,0,1-1.4-4l3.26-.15a4.63,4.63,0,0,0,.63,1.81,3.57,3.57,0,0,0,1.14,1.15ZM340.82,357a1.83,1.83,0,0,0-1.06.8,2.08,2.08,0,0,0-.28,1.31,2.6,2.6,0,0,0,.49,1.29,3.22,3.22,0,0,0,1.25,1c-.09-1.46-.23-2.94-.4-4.41Zm2,13.69a2.8,2.8,0,0,0,1.6-.81,2.45,2.45,0,0,0,.7-1.62,2.19,2.19,0,0,0-.45-1.5,3.24,3.24,0,0,0-1.59-1.06C343.07,367.34,343,369,342.85,370.66Z" transform="translate(-5.11 -12.81)"/><path class="cls-2" d="M99.78,468.17H345.2l-52.44,96.49c-34.7,8.39-106.1,8.56-140.54,0Z" transform="translate(-5.11 -12.81)"/><polygon class="cls-9" points="333.39 467.68 327.55 478.43 107.22 478.43 101.37 467.68 333.39 467.68"/><path class="cls-10" d="M93.23,455.85H351.75a12.36,12.36,0,0,1,12.33,12.32v12.32H80.9V468.17A12.36,12.36,0,0,1,93.23,455.85Z" transform="translate(-5.11 -12.81)"/><path class="cls-8" d="M402,284c18.69,4.41,37.24.91,56.08-3.76A90.86,90.86,0,0,1,514.15,284c-3.5,8.31-5.9,16.61-5.65,24.91s2.82,16.61,5.65,24.9c-18.7-5.91-37.49-5.91-56.09-1.38-18.78,4.56-37.39,7.2-56.08,1.38-1.75-8.29-3.37-16.58-3.53-24.9S399.87,292.34,402,284Z" transform="translate(-5.11 -12.81)"/><path class="cls-6" d="M413.24,293.82c14.26-.43,28.42-4,42.78-7.72a104.67,104.67,0,0,1,42.78-2.28c-1.29,4.21,1.25,8.74,5.31,10.48a61.12,61.12,0,0,0-.94,12,79,79,0,0,0,1.55,12c-4.07-1.59-6.58.85-5.39,5.06a120.47,120.47,0,0,0-42.88,3.35c-14.37,3.65-28.59,6.8-42.88,6.7a14,14,0,0,0-8.77-9.74,110.17,110.17,0,0,1-1-12,100.52,100.52,0,0,1,.64-12c4.07,1.15,7.9-1.55,8.83-5.77Zm41.6-3c-3.34.93-6.74,3.54-9.3,7a19.8,19.8,0,0,0-4.09,12,13.33,13.33,0,0,0,4.54,10,10.18,10.18,0,0,0,9.37,2.16,12.54,12.54,0,0,0,7.69-6.75,24.45,24.45,0,0,0,2.43-11.79c-.12-4.31-1.12-7.9-2.92-10.24A6.84,6.84,0,0,0,454.84,290.78Z" transform="translate(-5.11 -12.81)"/><path class="cls-7" d="M413.77,294.67c-1.19,4-4.76,6.61-8.67,6a98.57,98.57,0,0,0-.57,11.25,111.81,111.81,0,0,0,.94,11.24,15.1,15.1,0,0,1,8.66,9.45c14-.07,28-3.21,42.1-6.81a122.13,122.13,0,0,1,42.1-3.54c-.73-3.92,1.65-6.2,5.45-5.18a76.72,76.72,0,0,1-1.37-11.22,61.43,61.43,0,0,1,.77-11.22,9.75,9.75,0,0,1-5.39-10.29,106.56,106.56,0,0,0-42,2.57c-14.08,3.66-28,7.19-42,7.74ZM455,290a9.09,9.09,0,0,1,3.44-.35,7.51,7.51,0,0,1,5.66,4.26,21.29,21.29,0,0,1,2.13,9.39,26.62,26.62,0,0,1-1.67,10.4,15.61,15.61,0,0,1-5.59,7.48,11.45,11.45,0,0,1-3.45,1.62,11,11,0,0,1-3.74.35,11.6,11.6,0,0,1-7.69-4,14.34,14.34,0,0,1-3.42-9.16,19.83,19.83,0,0,1,3-10.58,23.35,23.35,0,0,1,7.59-7.78A15,15,0,0,1,455,290Z" transform="translate(-5.11 -12.81)"/><path class="cls-7" d="M453,312.79c-.18-1.83-.3-3.66-.38-5.5a4.93,4.93,0,0,1-3.57-1.23,4.28,4.28,0,0,1-1-3.28,7,7,0,0,1,1.53-4,8,8,0,0,1,3.56-2.64c.05-.43.11-.86.17-1.28l1.81-.51c-.07.44-.13.86-.19,1.29a3.63,3.63,0,0,1,3,.57,3.92,3.92,0,0,1,1.22,2.78c-1.05.4-2.1.82-3.14,1.25a1.71,1.71,0,0,0-1.36-1.69c-.11,1.71-.18,3.42-.22,5.13,2,0,3.32.4,4.06,1.13a4.75,4.75,0,0,1,1.24,3.23,7.18,7.18,0,0,1-1,4.33,7.64,7.64,0,0,1-3.51,3c.12.82.25,1.63.39,2.45l-1.81.49c-.13-.8-.25-1.61-.37-2.42a5,5,0,0,1-3.68-.71,5.65,5.65,0,0,1-2.08-3.48l3.18-1.33a3.54,3.54,0,0,0,.88,1.61,2.69,2.69,0,0,0,1.31.76ZM452.78,299a3.91,3.91,0,0,0-1.2,1.23,3.08,3.08,0,0,0-.5,1.51,1.65,1.65,0,0,0,1.49,1.82c0-1.52.11-3,.21-4.56Zm2,13.51a3.73,3.73,0,0,0,1.4-1.36,3.13,3.13,0,0,0,.43-1.87,2,2,0,0,0-.6-1.38,2.38,2.38,0,0,0-1.64-.54C454.52,309.08,454.64,310.8,454.82,312.51Z" transform="translate(-5.11 -12.81)"/><path class="cls-8" d="M360.07,243.38c16.74-8.58,34.74-13.71,53.26-17.6a149,149,0,0,0,51.92-21.33c4.61,7.15,8.82,14.44,11.66,22.25s4.36,16.09,5.63,24.46a244.58,244.58,0,0,1-52.61,19.46c-18.22,4.61-36,10.54-52.58,19.47a186.35,186.35,0,0,0-6.44-24.16A146.29,146.29,0,0,0,360.07,243.38Z" transform="translate(-5.11 -12.81)"/><path class="cls-6" d="M374.35,241.9c13.5-5.12,27.6-8.55,41.92-11.51a181.51,181.51,0,0,0,41.15-13.55,7.1,7.1,0,0,0,10.13,2.29,108.16,108.16,0,0,1,4.68,10.73,116.59,116.59,0,0,1,3.32,11.22,11.14,11.14,0,0,0-5.22,10.9,273.9,273.9,0,0,1-41.28,13.28A297.83,297.83,0,0,0,387.58,278c-.92-4-4.77-5.74-8.45-3.7-1.06-3.81-2.15-7.61-3.48-11.32s-2.92-7.33-4.55-10.93a7.57,7.57,0,0,0,3.25-10.18Zm44.08-7.73a8.72,8.72,0,0,0-6.76,5.52,14.8,14.8,0,0,0,.39,10.19,18.89,18.89,0,0,0,6.55,9,11.91,11.91,0,0,0,9.57,2.16,11.37,11.37,0,0,0,7.56-6.08,13.08,13.08,0,0,0,.62-10.44,16.77,16.77,0,0,0-17.93-10.31Z" transform="translate(-5.11 -12.81)"/><path class="cls-7" d="M375.42,242.25a8.32,8.32,0,0,1-3.32,10.09c1.51,3.38,3,6.78,4.23,10.25s2.29,7,3.3,10.59a6,6,0,0,1,8.45,3.74,309.76,309.76,0,0,1,40.82-12.41,277.87,277.87,0,0,0,40.63-12.94,12.25,12.25,0,0,1,5.16-10.77c-.92-3.53-1.88-7.06-3.13-10.49a108,108,0,0,0-4.34-10,7.85,7.85,0,0,1-10-2.39,185,185,0,0,1-40.52,13.16c-14.07,2.91-28,6.26-41.24,11.2Zm42.65-8.74a13.91,13.91,0,0,1,3.9-.22,18.8,18.8,0,0,1,9.13,3.33,16.27,16.27,0,0,1,6,7.67,13.82,13.82,0,0,1,.06,9.22,12.94,12.94,0,0,1-5.4,6.81,11.79,11.79,0,0,1-7.2,1.67,14,14,0,0,1-8-3.76,20.38,20.38,0,0,1-5.36-8.18,16.58,16.58,0,0,1-.86-9.07,9.23,9.23,0,0,1,4.29-6.24A10.51,10.51,0,0,1,418.07,233.51Z" transform="translate(-5.11 -12.81)"/><path class="cls-7" d="M425.11,252.82c-.51-1.6-1-3.2-1.57-4.8a8.38,8.38,0,0,1-4.25-1.16,6.15,6.15,0,0,1-2.38-2.85,3.85,3.85,0,0,1,0-3.33,4.2,4.2,0,0,1,2.76-2.11c-.17-.36-.34-.71-.52-1.07l1.83-.37c.17.36.35.71.52,1.07a7.06,7.06,0,0,1,3.72.52,6.27,6.27,0,0,1,2.68,2.31l-3,1a3.16,3.16,0,0,0-2.28-1.44c.64,1.43,1.23,2.88,1.81,4.33a10.1,10.1,0,0,1,4.81,1,4.87,4.87,0,0,1,2.12,2.77,4.61,4.61,0,0,1-.29,3.79,6.11,6.11,0,0,1-3.3,2.66c.18.73.39,1.45.56,2.18l-1.81.4c-.19-.71-.37-1.44-.57-2.16a6.36,6.36,0,0,1-3.9-.71,7,7,0,0,1-2.77-3.14l3.12-1.06a4.33,4.33,0,0,0,1.24,1.43,4,4,0,0,0,1.52.7ZM420.73,241a1.84,1.84,0,0,0-.83,1,1.78,1.78,0,0,0,.08,1.26,2.42,2.42,0,0,0,.85,1,3.55,3.55,0,0,0,1.52.57c-.52-1.28-1.05-2.58-1.62-3.85ZM427,252.61a2.56,2.56,0,0,0,1.27-1.17,2.09,2.09,0,0,0,.13-1.63,2.19,2.19,0,0,0-.94-1.2,3.78,3.78,0,0,0-1.9-.49C426,249.61,426.52,251.11,427,252.61Z" transform="translate(-5.11 -12.81)"/><path class="cls-8" d="M326.15,180.78c16.41-9.82,32.49-19.93,46.7-32.16s26.22-26.71,37.64-41.87l15.81,16.91,15.8,16.9c-11.43,15.16-23.3,29.84-37,42.58s-29.13,23.59-45,34l-17-18.19Z" transform="translate(-5.11 -12.81)"/><path class="cls-6" d="M341.32,178.12c12.24-8,24.25-16.18,35.14-25.64s20.51-20.2,29.8-31.35c2.62,2.8,6.81,2.37,9.3-1l7.52,8,7.52,8c-2.5,3.37-2.44,8.35.18,11.15-9.21,11.24-18.69,22.16-29.27,31.93s-22.2,18.39-34.08,26.75a9.39,9.39,0,0,0-11.46-1.3l-8.06-8.62-8.06-8.62c3.6-2.19,4.26-6.4,1.47-9.38Zm38-22.55a11.15,11.15,0,0,0-3.79,8.65,14.5,14.5,0,0,0,4.08,9.6,16.22,16.22,0,0,0,9.64,5.07,11.45,11.45,0,0,0,9.34-2.71,11.24,11.24,0,0,0,3.46-9,15.31,15.31,0,0,0-4.18-9.73,14.87,14.87,0,0,0-9.34-4.74A12.08,12.08,0,0,0,379.36,155.57Z" transform="translate(-5.11 -12.81)"/><path class="cls-7" d="M342.49,178.27a6.41,6.41,0,0,1-1.44,9.36l7.55,8.08,7.54,8.07a10.44,10.44,0,0,1,11.4,1.28c11.65-8.24,23.07-16.73,33.47-26.31s19.74-20.3,28.82-31.31c-2.28-3-2.34-7.64-.17-11.09-2.35-2.5-4.7-5-7-7.53l-7.05-7.54c-2.63,3-6.55,3.36-9.27,1C397.14,133.19,387.63,143.75,377,153s-22.47,17.38-34.47,25.25ZM378.86,155a12.33,12.33,0,0,1,3.12-2,13.54,13.54,0,0,1,8.54-.75,15.81,15.81,0,0,1,8,4.64,16.32,16.32,0,0,1,4.18,8.34,13.25,13.25,0,0,1-1.26,8.53,11,11,0,0,1-5.37,4.92,13.48,13.48,0,0,1-8.75.52,17.26,17.26,0,0,1-8.23-4.93,15.5,15.5,0,0,1-4.12-8.27,12.21,12.21,0,0,1,1.57-8.21A12,12,0,0,1,378.86,155Z" transform="translate(-5.11 -12.81)"/><path class="cls-7" d="M392.14,170.57l-3.4-3.63a7.26,7.26,0,0,1-4.08.87,5.16,5.16,0,0,1-3.11-1.65,4.33,4.33,0,0,1-1.27-3.24,5.22,5.22,0,0,1,1.57-3.36l-.8-.85,1.36-1.22.8.85a5.78,5.78,0,0,1,3.26-1.17,4.88,4.88,0,0,1,3,1c-.69.82-1.39,1.63-2.09,2.43a2.49,2.49,0,0,0-2.42-.37l3.16,3.38a8.63,8.63,0,0,1,4.41-1.31,4.5,4.5,0,0,1,2.95,1.55,5.05,5.05,0,0,1,1.46,3.58,6.31,6.31,0,0,1-1.57,3.94l1.51,1.61c-.45.42-.89.84-1.34,1.24l-1.5-1.6a6.09,6.09,0,0,1-3.68,1.21,6.44,6.44,0,0,1-3.77-1.51l2.22-2.41a3.92,3.92,0,0,0,1.68.71,3.52,3.52,0,0,0,1.6-.09Zm-8.53-9.12a2.27,2.27,0,0,0-.31,1.37,2,2,0,0,0,.53,1.2,2.05,2.05,0,0,0,1.1.6,2.75,2.75,0,0,0,1.49-.16l-2.81-3Zm10,8a2.72,2.72,0,0,0,.55-1.67,2.18,2.18,0,0,0-.61-1.53,2.1,2.1,0,0,0-1.31-.66,3.22,3.22,0,0,0-1.8.46Q392,167.79,393.62,169.49Z" transform="translate(-5.11 -12.81)"/><path class="cls-8" d="M206.25,138.09c-4.85-18.18-6.05-36.87-5.93-55.79A149.3,149.3,0,0,0,190.47,27c8-3,16-5.56,24.21-6.68s16.65-.86,25.1-.32a244.63,244.63,0,0,1,7.88,55.54c.65,18.78,2.68,37.37,7.9,55.5a187,187,0,0,0-25,1.18A145.44,145.44,0,0,0,206.25,138.09Z" transform="translate(-5.11 -12.81)"/><path class="cls-6" d="M207.82,123.81c-2.14-14.28-2.51-28.78-2.37-43.4a181.08,181.08,0,0,0-4.54-43.09,7.1,7.1,0,0,0,4.39-9.42,111,111,0,0,1,11.48-2.3c3.85-.52,7.76-.73,11.67-.87A11.16,11.16,0,0,0,238,32.14a274.48,274.48,0,0,1,4.23,43.16,298.08,298.08,0,0,0,3.7,43.23c-4.14,0-6.61,3.45-5.4,7.47-3.95.24-7.9.49-11.8,1s-7.78,1.31-11.65,2.14a7.57,7.57,0,0,0-9.26-5.34ZM209.6,79.1a8.74,8.74,0,0,0,4,7.77,14.8,14.8,0,0,0,10,1.77,18.87,18.87,0,0,0,10.15-4.5,11.86,11.86,0,0,0,4.13-8.9,11.36,11.36,0,0,0-4.33-8.67,13.14,13.14,0,0,0-10.08-2.82,16,16,0,0,0-9.77,5.5A15.8,15.8,0,0,0,209.6,79.1Z" transform="translate(-5.11 -12.81)"/><path class="cls-7" d="M208.39,122.84a8.32,8.32,0,0,1,9.16,5.38c3.62-.76,7.25-1.47,10.91-2s7.35-.75,11-1a6,6,0,0,1,5.45-7.46,307.36,307.36,0,0,1-3.49-42.52,278.73,278.73,0,0,0-4-42.45A12.28,12.28,0,0,1,228,25.51c-3.65.16-7.3.35-10.91.84a107.63,107.63,0,0,0-10.73,2.12,7.83,7.83,0,0,1-4.46,9.3,184.71,184.71,0,0,1,4.28,42.39c-.13,14.37.2,28.65,2.22,42.68Zm.48-43.54a14.25,14.25,0,0,1,.62-3.85,18.87,18.87,0,0,1,5.18-8.22A16.21,16.21,0,0,1,223.45,63a13.73,13.73,0,0,1,9,1.88A13,13,0,0,1,238,71.55a11.87,11.87,0,0,1,.65,3.68,11.39,11.39,0,0,1-.55,3.71,14,14,0,0,1-5.36,7,20.42,20.42,0,0,1-9.12,3.51,16.71,16.71,0,0,1-9.05-1.08,9.26,9.26,0,0,1-5.19-5.52A10.74,10.74,0,0,1,208.87,79.3Z" transform="translate(-5.11 -12.81)"/><path class="cls-7" d="M229.24,76.52c-1.67.15-3.34.31-5,.51a8.41,8.41,0,0,1-2,3.91,6.18,6.18,0,0,1-3.3,1.72,3.85,3.85,0,0,1-3.26-.67,4.26,4.26,0,0,1-1.48-3.15l-1.15.28q0-.91,0-1.86l1.15-.28a7.08,7.08,0,0,1,1.3-3.53,6.23,6.23,0,0,1,2.82-2.13c.13,1.07.25,2.12.38,3.18a3.1,3.1,0,0,0-1.89,1.92c1.53-.32,3.08-.6,4.62-.85a9.87,9.87,0,0,1,2-4.49,4.86,4.86,0,0,1,3.15-1.49,4.61,4.61,0,0,1,3.65,1.09,6.12,6.12,0,0,1,1.9,3.79c.75,0,1.5-.08,2.24-.09,0,.63,0,1.23,0,1.85l-2.23.1A6.45,6.45,0,0,1,230.61,80,7.08,7.08,0,0,1,227,82c-.12-1.09-.25-2.18-.37-3.28a4.42,4.42,0,0,0,1.65-.91,4,4,0,0,0,1-1.33Zm-12.52,1.76a1.83,1.83,0,0,0,.81,1,1.75,1.75,0,0,0,1.24.18,2.32,2.32,0,0,0,1.18-.61,3.49,3.49,0,0,0,.88-1.37c-1.37.24-2.75.48-4.11.77Zm12.71-3.63a2.55,2.55,0,0,0-.87-1.5,2.2,2.2,0,0,0-2.94.2,3.73,3.73,0,0,0-.88,1.75C226.3,74.93,227.87,74.78,229.43,74.65Z" transform="translate(-5.11 -12.81)"/><path class="cls-8" d="M42.49,56.06c11.92,14.4,23.27,29.3,34.82,44s24.11,28.6,39.29,40.15c-4.47,7.5-9.31,14.56-15.61,20s-13.92,9.31-21.78,12.94c-15.72-11.08-28.5-24.78-39.84-39.66S16.92,103.46,5.11,89c8.44-3,16.29-6.6,22.4-12.22S38.18,63.74,42.49,56.06Z" transform="translate(-5.11 -12.81)"/><path class="cls-6" d="M47.94,71.15c8.91,11.3,17.59,22.8,26.44,34.18a375.63,375.63,0,0,0,28.27,32.57c-2.38,3.6-1.86,8.55,1.55,11a80.39,80.39,0,0,1-8.3,8.6,79.89,79.89,0,0,1-9.72,7,13.77,13.77,0,0,0-12.94-.88A291,291,0,0,1,45,131.33c-8.68-11.42-17.15-23-25.91-34.35,4-1.76,4.93-6,2.33-9.1a65.14,65.14,0,0,0,9.6-7,69.88,69.88,0,0,0,7.92-8.94c2.64,3.16,6.73,2.92,9-.74Zm23.88,38.14a8.28,8.28,0,0,0-8-3.26c-3.08.42-6.36,2.17-9.45,4.94A21.9,21.9,0,0,0,48,120.2a9.68,9.68,0,0,0,1.25,9.11,12.51,12.51,0,0,0,9.15,4.57,14.79,14.79,0,0,0,10.82-3.61,16.23,16.23,0,0,0,5.2-10.55A14.83,14.83,0,0,0,71.82,109.29Z" transform="translate(-5.11 -12.81)"/><path class="cls-7" d="M48,72.44a5.71,5.71,0,0,1-9,.65,66.82,66.82,0,0,1-7.47,8.34,65.2,65.2,0,0,1-8.94,6.65,6.2,6.2,0,0,1-2.25,9.16C28.89,108.4,37.22,119.78,45.74,131A305.27,305.27,0,0,0,73.4,162.81a15.11,15.11,0,0,1,12.76.86,78.46,78.46,0,0,0,9.07-6.6,79,79,0,0,0,7.82-8,8.92,8.92,0,0,1-1.4-10.94A387.69,387.69,0,0,1,73.94,106C65.27,94.87,56.73,83.55,48,72.44Zm24.29,36.17A13.13,13.13,0,0,1,74.15,112a18,18,0,0,1,.63,9.9,16.46,16.46,0,0,1-5.09,9,15.35,15.35,0,0,1-9.3,3.76,15.08,15.08,0,0,1-9.12-2.38,11.36,11.36,0,0,1-2.75-2.59,9.54,9.54,0,0,1-1.62-3.19,12,12,0,0,1,1-8.26,24.83,24.83,0,0,1,6-7.89,21.42,21.42,0,0,1,8.2-4.84,9.35,9.35,0,0,1,7.57.75A9.7,9.7,0,0,1,72.28,108.61Z" transform="translate(-5.11 -12.81)"/><path class="cls-7" d="M56.54,123.74c1.42-1.08,2.8-2.19,4.16-3.34a7.66,7.66,0,0,1-.55-4.27,6.82,6.82,0,0,1,1.8-3.38,4.5,4.5,0,0,1,3.13-1.59,4,4,0,0,1,3.14,1.45c.27-.32.52-.65.79-1l1.11,1.45c-.26.34-.52.67-.8,1a6.8,6.8,0,0,1,1.07,3.61,6.4,6.4,0,0,1-1.14,3.48L67,118.92a3.22,3.22,0,0,0,.47-2.69q-1.69,1.84-3.46,3.59a8.76,8.76,0,0,1,.92,4.69,5,5,0,0,1-1.9,3.06,5.47,5.47,0,0,1-4,1.24,6.45,6.45,0,0,1-4-1.91c-.68.44-1.35.87-2,1.28L52,126.74c.67-.42,1.35-.83,2-1.26a5.39,5.39,0,0,1-.75-3.7,7.25,7.25,0,0,1,2.07-3.67l2.26,2.35a4.67,4.67,0,0,0-.94,1.67,3.5,3.5,0,0,0-.12,1.61Zm9.87-9a1.79,1.79,0,0,0-1.3-.27,2,2,0,0,0-1.17.66,2.48,2.48,0,0,0-.64,1.21,3.42,3.42,0,0,0,.06,1.61c1-1,2-2.12,3-3.21ZM57.47,125.3a2.79,2.79,0,0,0,1.67.67,2.47,2.47,0,0,0,1.68-.55,2.23,2.23,0,0,0,.83-1.32,3.34,3.34,0,0,0-.26-1.89Q59.47,123.8,57.47,125.3Z" transform="translate(-5.11 -12.81)"/><path class="cls-8" d="M294.77,213.24c-1.27-19.07-2.12-38.05-.16-56.69s7-36.77,13-54.79l-22.9-3.36L261.79,95c-6,18-11.25,36.15-13.93,54.65s-2.8,37.38-2.36,56.33l24.62,3.61Z" transform="translate(-5.11 -12.81)"/><path class="cls-6" d="M288.32,199.26c-.4-14.6-.51-29.14,1.06-43.48s4.92-28.37,8.79-42.35c-3.79-.56-5.82-4.25-4.46-8.22l-10.9-1.6L271.92,102c-1.35,4-5.48,6.76-9.27,6.2-4,14-7.57,28-9.58,42.24s-2.46,28.73-2.57,43.26a9.37,9.37,0,0,1,7.59,8.67l11.68,1.72,11.67,1.71c-.25-4.21,2.84-7.14,6.88-6.55Zm-3.14-44.11a11.09,11.09,0,0,1-4.95,8A14.44,14.44,0,0,1,270,165.31a16.26,16.26,0,0,1-9.66-5,11.48,11.48,0,0,1-3.09-9.22,11.28,11.28,0,0,1,5.39-8A15.33,15.33,0,0,1,273,141a14.9,14.9,0,0,1,9.22,5A12.06,12.06,0,0,1,285.18,155.15Z" transform="translate(-5.11 -12.81)"/><path class="cls-7" d="M287.52,198.38a6.42,6.42,0,0,0-6.87,6.52l-10.94-1.6-10.93-1.61a10.46,10.46,0,0,0-7.54-8.64c.14-14.26.61-28.49,2.57-42.49s5.44-27.79,9.32-41.52a10.06,10.06,0,0,0,9.21-6.18l10.2,1.5,10.21,1.5c-.93,3.85,1,7.3,4.47,8.19-3.76,13.74-7,27.58-8.58,41.62s-1.48,28.38-1.12,42.71Zm-1.61-43.12a12,12,0,0,0-.14-3.69,13.55,13.55,0,0,0-4.25-7.45,15.72,15.72,0,0,0-8.34-3.89,16.25,16.25,0,0,0-9.24,1.31,13.14,13.14,0,0,0-6.29,5.9,11,11,0,0,0-1,7.21,13.54,13.54,0,0,0,4.56,7.49,17.21,17.21,0,0,0,8.74,4,15.53,15.53,0,0,0,9.14-1.32,11.9,11.9,0,0,0,6.81-9.51Z" transform="translate(-5.11 -12.81)"/><path class="cls-7" d="M265.58,153.19l4.92.72a7.21,7.21,0,0,0,1.61,3.86,5.09,5.09,0,0,0,3.13,1.61,4.27,4.27,0,0,0,3.38-.8,5.14,5.14,0,0,0,1.87-3.2l1.16.17c.07-.6.14-1.2.22-1.81l-1.16-.17a5.67,5.67,0,0,0-.88-3.35,4.92,4.92,0,0,0-2.6-1.91c-.28,1-.55,2.07-.81,3.1a2.48,2.48,0,0,1,1.69,1.78l-4.59-.68a8.48,8.48,0,0,0-1.43-4.37,4.5,4.5,0,0,0-2.95-1.54,5,5,0,0,0-3.77.84A6.25,6.25,0,0,0,263,151l-2.18-.32c-.09.61-.18,1.21-.26,1.81l2.17.32a6,6,0,0,0,1.11,3.71,6.4,6.4,0,0,0,3.38,2.24l.72-3.19a3.9,3.9,0,0,1-1.54-1,3.37,3.37,0,0,1-.84-1.36ZM277.93,155a2.24,2.24,0,0,1-.95,1,2,2,0,0,1-1.28.24,2.09,2.09,0,0,1-1.13-.56,2.87,2.87,0,0,1-.71-1.32l4.07.6Zm-12.3-3.66a2.77,2.77,0,0,1,1.05-1.4,2.18,2.18,0,0,1,1.61-.36,2,2,0,0,1,1.28.7,3.15,3.15,0,0,1,.66,1.74Z" transform="translate(-5.11 -12.81)"/><path class="cls-8" d="M268.58,374.39c-17.51-6.85-33.28-16.95-48.46-28.25a149,149,0,0,0-50.36-24.78c2.31-8.19,5-16.18,9-23.47s9.16-13.92,14.6-20.42A244.73,244.73,0,0,1,242.73,304c15.52,10.59,31.71,20,49.41,26.5a185.78,185.78,0,0,0-13.84,20.83A145.29,145.29,0,0,0,268.58,374.39Z" transform="translate(-5.11 -12.81)"/><path class="cls-6" d="M258,364.67c-12.77-6.73-24.68-15-36.38-23.79A180.57,180.57,0,0,0,184.22,319a7.11,7.11,0,0,0-5-9.12,109.86,109.86,0,0,1,4.93-10.61c1.87-3.41,4-6.68,6.21-9.92A11.13,11.13,0,0,0,202,286.07a274.58,274.58,0,0,1,37.28,22.15,298.09,298.09,0,0,0,37,22.61c-2.42,3.36-1.14,7.38,2.81,8.78-2.14,3.32-4.27,6.66-6.17,10.11s-3.55,7-5.17,10.65a7.57,7.57,0,0,0-9.79,4.3Zm-35-27.91a8.74,8.74,0,0,0,8.61,1.41,14.82,14.82,0,0,0,7.38-7,18.84,18.84,0,0,0,2.37-10.84,11.84,11.84,0,0,0-4.72-8.6,11.31,11.31,0,0,0-9.55-1.64,13.08,13.08,0,0,0-8.24,6.45A16.77,16.77,0,0,0,223,336.76Z" transform="translate(-5.11 -12.81)"/><path class="cls-7" d="M257.57,363.64a8.32,8.32,0,0,1,9.75-4.2c1.54-3.37,3.12-6.71,4.89-9.95S276,343.11,278,340a6,6,0,0,1-2.78-8.81,308.53,308.53,0,0,1-36.34-22.36A276.93,276.93,0,0,0,202.23,287a12.25,12.25,0,0,1-11.49,3.26c-2,3-4,6.09-5.79,9.29s-3.22,6.53-4.64,9.9a7.85,7.85,0,0,1,4.86,9.1,185.71,185.71,0,0,1,36.7,21.65c11.49,8.62,23.2,16.8,35.7,23.49Zm-34.8-26.17a13.91,13.91,0,0,1-2.74-2.78,18.78,18.78,0,0,1-3.55-9,16.19,16.19,0,0,1,1.74-9.61,13.79,13.79,0,0,1,6.86-6.16,13.07,13.07,0,0,1,8.69-.47,12.13,12.13,0,0,1,3.34,1.66,11.74,11.74,0,0,1,2.67,2.64,14,14,0,0,1,2.46,8.46,20.4,20.4,0,0,1-2.57,9.43,16.57,16.57,0,0,1-6.23,6.65,9.18,9.18,0,0,1-7.52.91A10.51,10.51,0,0,1,222.77,337.47Z" transform="translate(-5.11 -12.81)"/><path class="cls-7" d="M232.58,319.41c-.86,1.43-1.73,2.88-2.55,4.35a8.49,8.49,0,0,1,1.94,3.95,6.05,6.05,0,0,1-.56,3.67,3.81,3.81,0,0,1-2.47,2.23,4.21,4.21,0,0,1-3.41-.67c-.16.36-.31.73-.46,1.1l-1.49-1.13.45-1.09a7.21,7.21,0,0,1-2.07-3.14,6.23,6.23,0,0,1,0-3.53c.94.52,1.86,1.05,2.78,1.57a3.16,3.16,0,0,0,.43,2.66c.65-1.42,1.34-2.83,2.05-4.22a10,10,0,0,1-2.44-4.27,4.9,4.9,0,0,1,.67-3.42,4.58,4.58,0,0,1,3-2.29,6.06,6.06,0,0,1,4.17.71c.43-.62.83-1.25,1.26-1.86l1.5,1.08c-.4.62-.83,1.23-1.24,1.86a6.32,6.32,0,0,1,2.05,3.4,7,7,0,0,1-.51,4.15l-2.87-1.64a4.39,4.39,0,0,0,.25-1.88,3.86,3.86,0,0,0-.48-1.59Zm-6,11.13a1.84,1.84,0,0,0,1.31,0,1.77,1.77,0,0,0,.88-.89,2.28,2.28,0,0,0,.21-1.31,3.42,3.42,0,0,0-.59-1.52c-.61,1.24-1.23,2.49-1.81,3.76Zm4.6-12.4a2.67,2.67,0,0,0-1.72-.18,2.09,2.09,0,0,0-1.3,1,2.11,2.11,0,0,0-.28,1.5,3.77,3.77,0,0,0,.89,1.75C229.57,320.84,230.37,319.48,231.19,318.14Z" transform="translate(-5.11 -12.81)"/></svg>